<?xml version="1.0" encoding="UTF-8" standalone="no"?>
<!-- Uploaded to: SVG Repo, www.svgrepo.com, Generator: SVG Repo Mixer Tools -->

<svg
   width="800px"
   height="800px"
   viewBox="0 0 24 24"
   fill="none"
   version="1.1"
   id="svg1"
   sodipodi:docname="document-text.svg"
   inkscape:version="1.4.2 (ebf0e940d0, 2025-05-08)"
   xmlns:inkscape="http://www.inkscape.org/namespaces/inkscape"
   xmlns:sodipodi="http://sodipodi.sourceforge.net/DTD/sodipodi-0.dtd"
   xmlns="http://www.w3.org/2000/svg"
   xmlns:svg="http://www.w3.org/2000/svg">
  <defs
     id="defs1">
    <inkscape:path-effect
       effect="fillet_chamfer"
       id="path-effect26-6"
       is_visible="true"
       lpeversion="1"
       nodesatellites_param="F,0,0,1,0,2.6458333,0,1 @ F,0,0,1,0,2.6458333,0,1 @ F,0,0,1,0,2.6458333,0,1 @ F,0,0,1,0,2.6458333,0,1"
       radius="10"
       unit="px"
       method="auto"
       mode="F"
       chamfer_steps="1"
       flexible="false"
       use_knot_distance="true"
       apply_no_radius="true"
       apply_with_radius="true"
       only_selected="false"
       hide_knots="false" />
    <inkscape:path-effect
       effect="fillet_chamfer"
       id="path-effect20"
       is_visible="true"
       lpeversion="1"
       nodesatellites_param="F,0,1,1,0,5.5644184,0,1 @ F,0,1,1,0,5.5644184,0,1 @ F,0,1,1,0,5.5644184,0,1 @ F,0,0,1,0,2.6458333,0,1 @ F,0,0,1,0,2.6458333,0,1"
       radius="15"
       unit="px"
       method="auto"
       mode="F"
       chamfer_steps="1"
       flexible="false"
       use_knot_distance="true"
       apply_no_radius="true"
       apply_with_radius="true"
       only_selected="true"
       hide_knots="false" />
  </defs>
  <sodipodi:namedview
     id="namedview1"
     pagecolor="#505050"
     bordercolor="#eeeeee"
     borderopacity="1"
     inkscape:showpageshadow="0"
     inkscape:pageopacity="0"
     inkscape:pagecheckerboard="0"
     inkscape:deskcolor="#d1d1d1"
     inkscape:zoom="0.63832035"
     inkscape:cx="557.71369"
     inkscape:cy="386.16973"
     inkscape:window-width="1900"
     inkscape:window-height="995"
     inkscape:window-x="10"
     inkscape:window-y="75"
     inkscape:window-maximized="1"
     inkscape:current-layer="svg1" />
  <path
     id="rect19"
     style="fill:#8ac0ca;stroke-width:0;stroke-linecap:square;paint-order:markers fill stroke"
     d="M 263.80394 68.995184 A 5.5644184 5.5644184 0 0 0 258.23943 74.559653 L 258.23943 187.69256 A 5.5644184 5.5644184 0 0 0 263.80394 193.25703 L 352.08456 193.25703 A 5.5644184 5.5644184 0 0 0 357.64908 187.69256 L 357.64908 87.699589 C 357.64908 86.238336 356.8153 84.21204 355.78343 83.177389 C 351.68381 79.066728 347.54767 74.992117 343.45482 70.874762 C 342.42475 69.838527 340.40838 68.995184 338.94713 68.995184 L 263.80394 68.995184 z M 274.24433 101.00699 L 340.76798 101.00699 L 340.76798 113.94051 L 274.24433 113.94051 L 274.24433 101.00699 z M 274.24433 124.65953 L 340.76798 124.65953 L 340.76798 137.59269 L 274.24433 137.59269 L 274.24433 124.65953 z M 274.24433 148.31171 L 340.76798 148.31171 L 340.76798 161.24523 L 274.24433 161.24523 L 274.24433 148.31171 z "
     transform="matrix(0.16089673,0,0,0.16095076,-37.547223,-9.1048468)" />
</svg>
